<mxfile host="app.diagrams.net" modified="2020-08-18T06:15:41.906Z" agent="5.0 (X11; Linux x86_64) AppleWebKit/537.36 (KHTML, like Gecko) Chrome/83.0.4103.116 Safari/537.36" etag="O_2IKB1iEi8_uME_43NJ" version="13.6.0" type="github">
  <diagram id="W8g-7RWnVywGRjpL412s" name="Page-1">
    <mxGraphModel dx="2249" dy="833" grid="1" gridSize="10" guides="1" tooltips="1" connect="1" arrows="1" fold="1" page="1" pageScale="1" pageWidth="827" pageHeight="1169" math="0" shadow="0">
      <root>
        <mxCell id="0" />
        <mxCell id="1" parent="0" />
        <mxCell id="NGABUArLXIYWqG9NrjS4-1" value="" style="whiteSpace=wrap;html=1;aspect=fixed;" vertex="1" parent="1">
          <mxGeometry x="230" y="290" width="280" height="280" as="geometry" />
        </mxCell>
        <mxCell id="NGABUArLXIYWqG9NrjS4-2" value="" style="ellipse;whiteSpace=wrap;html=1;aspect=fixed;" vertex="1" parent="1">
          <mxGeometry x="230" y="290" width="280" height="280" as="geometry" />
        </mxCell>
        <mxCell id="NGABUArLXIYWqG9NrjS4-3" value="" style="ellipse;whiteSpace=wrap;html=1;aspect=fixed;fillColor=none;" vertex="1" parent="1">
          <mxGeometry x="230" y="290" width="550" height="550" as="geometry" />
        </mxCell>
        <mxCell id="NGABUArLXIYWqG9NrjS4-5" value="" style="ellipse;whiteSpace=wrap;html=1;aspect=fixed;fillColor=none;" vertex="1" parent="1">
          <mxGeometry x="-40" y="20" width="550" height="550" as="geometry" />
        </mxCell>
        <mxCell id="NGABUArLXIYWqG9NrjS4-6" value="" style="endArrow=none;html=1;entryX=1;entryY=0.5;entryDx=0;entryDy=0;exitX=0.5;exitY=1;exitDx=0;exitDy=0;" edge="1" parent="1" source="NGABUArLXIYWqG9NrjS4-5" target="NGABUArLXIYWqG9NrjS4-5">
          <mxGeometry width="50" height="50" relative="1" as="geometry">
            <mxPoint x="390" y="450" as="sourcePoint" />
            <mxPoint x="440" y="400" as="targetPoint" />
          </mxGeometry>
        </mxCell>
        <mxCell id="NGABUArLXIYWqG9NrjS4-7" value="" style="endArrow=none;html=1;entryX=0.491;entryY=0.491;entryDx=0;entryDy=0;entryPerimeter=0;" edge="1" parent="1" target="NGABUArLXIYWqG9NrjS4-5">
          <mxGeometry width="50" height="50" relative="1" as="geometry">
            <mxPoint x="510" y="570" as="sourcePoint" />
            <mxPoint x="440" y="400" as="targetPoint" />
          </mxGeometry>
        </mxCell>
        <mxCell id="NGABUArLXIYWqG9NrjS4-8" value="已知" style="text;html=1;strokeColor=none;fillColor=none;align=center;verticalAlign=middle;whiteSpace=wrap;rounded=0;" vertex="1" parent="1">
          <mxGeometry x="230" y="320" width="40" height="20" as="geometry" />
        </mxCell>
        <mxCell id="NGABUArLXIYWqG9NrjS4-9" value="" style="endArrow=none;dashed=1;html=1;" edge="1" parent="1">
          <mxGeometry width="50" height="50" relative="1" as="geometry">
            <mxPoint x="370" y="430" as="sourcePoint" />
            <mxPoint x="240" y="490" as="targetPoint" />
          </mxGeometry>
        </mxCell>
      </root>
    </mxGraphModel>
  </diagram>
</mxfile>
